<mxfile host="app.diagrams.net" modified="2024-03-24T10:33:05.202Z" agent="Mozilla/5.0 (Windows NT 10.0; Win64; x64) AppleWebKit/537.36 (KHTML, like Gecko) Chrome/122.0.0.0 Safari/537.36 Edg/122.0.0.0" version="24.0.5" etag="Vi6-AoSAlx_8w7T3q4-x" type="github">
  <diagram name="Page-1" id="zdsX21Enpbt27teevVOa">
    <mxGraphModel>
      <root>
        <mxCell id="0" />
        <mxCell id="1" parent="0" />
      </root>
    </mxGraphModel>
  </diagram>
</mxfile>
